<?xml version="1.0"?>
<svg xmlns="http://www.w3.org/2000/svg" xmlns:xlink="http://www.w3.org/1999/xlink" xmlns:svgjs="http://svgjs.com/svgjs" version="1.1" width="512" height="512" x="0" y="0" viewBox="0 0 512 512" style="enable-background:new 0 0 512 512" xml:space="preserve" class=""><g>
<polygon xmlns="http://www.w3.org/2000/svg" style="" points="417.794,131.022 190.858,0 154.607,35.069 94.184,56.181 94.206,380.978 321.142,512   357.393,476.931 417.816,455.819 " fill="#34bb5b" data-original="#5aaae7" class=""/>
<polygon xmlns="http://www.w3.org/2000/svg" style="" points="195.228,20.155 170.393,44.181 128.991,58.648 129.011,383.445 170.413,368.98   195.249,344.952 " fill="#1f5a30" data-original="#6e76e5" class=""/>
<polygon xmlns="http://www.w3.org/2000/svg" style="" points="382.989,128.559 383.01,453.356 195.249,344.952 195.228,20.155 " fill="#1b7c37" data-original="#515be0" class=""/>
<polygon xmlns="http://www.w3.org/2000/svg" style="" points="417.794,131.022 357.371,152.134 321.121,187.203 94.184,56.181 94.206,380.978 321.142,512   357.393,476.931 417.816,455.819 " fill="#35c25e" data-original="#3d99e2" class=""/>
<polygon xmlns="http://www.w3.org/2000/svg" style="" points="321.121,187.203 321.142,512 94.206,380.978 94.184,56.181 " fill="#32bf5b" data-original="#57a4ff" class=""/>
<polygon xmlns="http://www.w3.org/2000/svg" style="" points="417.794,131.022 357.371,152.134 321.121,187.203 321.142,512 357.393,476.931   417.816,455.819 " fill="#1f5a30" data-original="#6e76e5" class=""/>
<path xmlns="http://www.w3.org/2000/svg" style="" d="M417.794,131.022l-60.423,21.112l-36.251,35.069L94.184,56.181l60.423-21.112L190.858,0  L417.794,131.022z M316.751,167.052l24.835-24.031l41.403-14.462L195.228,20.155l-24.835,24.027l-41.402,14.466L316.751,167.052" fill="#24b34d" data-original="#71b8ff" class=""/>
<g xmlns="http://www.w3.org/2000/svg" style="enable-background:new    ;">
	<path style="" d="M161.316,107.048c-6.392-3.691-11.592-0.729-11.613,6.618c-0.021,7.345,5.146,16.291,11.538,19.982   c6.392,3.691,11.59,0.727,11.611-6.616C172.871,119.683,167.707,110.737,161.316,107.048z" fill="#1f5a30" data-original="#6e76e5" class=""/>
</g>
<g xmlns="http://www.w3.org/2000/svg" style="enable-background:new    ;">
	<path style="" d="M251.741,159.243c-6.392-3.69-11.592-0.729-11.613,6.618c-0.021,7.345,5.146,16.291,11.538,19.982   c6.392,3.691,11.59,0.727,11.611-6.616C263.298,171.879,258.133,162.934,251.741,159.243z" fill="#1f5a30" data-original="#6e76e5" class=""/>
</g>
<path xmlns="http://www.w3.org/2000/svg" style="" d="M251.678,163.687c-2.131-1.23-4.06-1.345-5.453-0.535l-7.609,4.422  c0.005-0.003,0.01-0.004,0.015-0.007c-1.382,0.795-2.241,2.495-2.248,4.919l-0.046,16.11c-0.017,6.071-1.098,11.198-3.04,15.321  c-1.201,2.552-2.738,4.708-4.553,6.454c-0.561,0.165-1.132,0.312-1.717,0.428c-3.05,0.603-6.408,0.536-9.986-0.248  c-3.581-0.79-7.381-2.29-11.348-4.58c-5.287-3.052-10.278-7.163-14.83-12.009c-6.821-7.262-12.644-16.201-16.735-25.569  c-2.048-4.688-3.663-9.477-4.762-14.228c-1.101-4.753-1.689-9.464-1.676-14.018l0.046-16.11c0.014-4.863-3.404-10.779-7.636-13.223  c-2.128-1.229-4.057-1.344-5.449-0.534l-7.609,4.422c0.004-0.003,0.009-0.004,0.015-0.007c-1.382,0.795-2.241,2.496-2.248,4.919  l-0.046,16.11c-0.024,8.455,1.449,17.417,4.137,26.336c4.032,13.375,10.771,26.643,19.278,38.187  c4.254,5.768,8.954,11.111,13.974,15.81c5.023,4.697,10.366,8.75,15.883,11.935c7.358,4.253,14.414,6.601,20.82,7.185  c6.568,0.598,12.458-0.65,17.379-3.561c-0.057,0.033-0.113,0.07-0.17,0.103l7.609-4.422c2.35-1.366,4.482-3.11,6.362-5.211  c2.895-3.235,5.195-7.326,6.773-12.202c1.581-4.87,2.44-10.527,2.458-16.868l0.046-16.11  C259.325,172.045,255.907,166.128,251.678,163.687z" fill="#d8d8da" data-original="#d8d8da" class=""/>
<path xmlns="http://www.w3.org/2000/svg" style="" d="M227.028,210.8c-3.05,0.603-6.408,0.536-9.986-0.248c-3.581-0.79-7.381-2.29-11.348-4.58  c-5.287-3.052-10.278-7.163-14.83-12.009c-6.821-7.262-12.644-16.201-16.735-25.569c-2.048-4.688-3.663-9.477-4.762-14.228  c-1.101-4.753-1.689-9.464-1.676-14.018l0.046-16.11c0.014-4.863-3.404-10.779-7.636-13.223c-2.128-1.229-4.057-1.344-5.449-0.534  l-7.609,4.422c1.393-0.809,3.322-0.695,5.449,0.534c4.232,2.444,7.651,8.36,7.636,13.223l-0.046,16.11  c-0.013,4.555,0.575,9.265,1.676,14.017c1.098,4.751,2.714,9.54,4.762,14.228c4.092,9.368,9.914,18.307,16.735,25.569  c4.554,4.846,9.544,8.957,14.83,12.009c3.966,2.29,7.767,3.79,11.348,4.58c3.578,0.785,6.936,0.852,9.986,0.248  c2.087-0.415,4.028-1.144,5.796-2.171l7.609-4.422C231.056,209.656,229.115,210.386,227.028,210.8z" fill="#e0e0e2" data-original="#e0e0e2" class=""/>
<path xmlns="http://www.w3.org/2000/svg" style="" d="M251.678,163.687c-2.131-1.23-4.06-1.345-5.453-0.535l-7.609,4.422  c1.393-0.81,3.323-0.695,5.453,0.536c4.229,2.441,7.647,8.358,7.633,13.221l-0.046,16.11c-0.018,6.34-0.877,11.996-2.458,16.868  c-1.578,4.877-3.878,8.967-6.773,12.202c-1.881,2.101-4.012,3.845-6.362,5.211l7.609-4.422c2.35-1.366,4.482-3.11,6.362-5.211  c2.895-3.235,5.195-7.326,6.773-12.202c1.581-4.87,2.44-10.527,2.458-16.868l0.046-16.11  C259.325,172.045,255.907,166.128,251.678,163.687z" fill="#c6c5cb" data-original="#c6c5cb" class=""/>
<path xmlns="http://www.w3.org/2000/svg" style="" d="M244.069,168.108c4.229,2.441,7.647,8.358,7.633,13.221l-0.046,16.11  c-0.018,6.34-0.877,11.998-2.458,16.868c-1.578,4.877-3.878,8.967-6.773,12.202c-5.79,6.471-13.956,9.543-23.571,8.668  c-6.405-0.584-13.461-2.933-20.82-7.185c-5.518-3.186-10.861-7.238-15.883-11.935c-5.02-4.699-9.721-10.043-13.974-15.811  c-8.508-11.544-15.246-24.812-19.278-38.187c-2.687-8.918-4.161-17.88-4.137-26.336l0.046-16.11c0.014-4.863,3.454-6.82,7.683-4.378  c4.233,2.444,7.651,8.36,7.636,13.223l-0.046,16.11c-0.013,4.555,0.575,9.265,1.676,14.017c1.098,4.751,2.714,9.54,4.762,14.228  c4.092,9.368,9.914,18.307,16.735,25.569c4.554,4.846,9.544,8.957,14.83,12.009c3.966,2.29,7.767,3.79,11.348,4.58  c3.578,0.785,6.936,0.852,9.986,0.248c6.103-1.212,10.968-5.12,13.878-11.305c1.941-4.123,3.023-9.25,3.04-15.321l0.046-16.11  C236.397,167.621,239.838,165.665,244.069,168.108z" fill="#d8d8da" data-original="#d8d8da" class=""/>
<g xmlns="http://www.w3.org/2000/svg">
</g>
<g xmlns="http://www.w3.org/2000/svg">
</g>
<g xmlns="http://www.w3.org/2000/svg">
</g>
<g xmlns="http://www.w3.org/2000/svg">
</g>
<g xmlns="http://www.w3.org/2000/svg">
</g>
<g xmlns="http://www.w3.org/2000/svg">
</g>
<g xmlns="http://www.w3.org/2000/svg">
</g>
<g xmlns="http://www.w3.org/2000/svg">
</g>
<g xmlns="http://www.w3.org/2000/svg">
</g>
<g xmlns="http://www.w3.org/2000/svg">
</g>
<g xmlns="http://www.w3.org/2000/svg">
</g>
<g xmlns="http://www.w3.org/2000/svg">
</g>
<g xmlns="http://www.w3.org/2000/svg">
</g>
<g xmlns="http://www.w3.org/2000/svg">
</g>
<g xmlns="http://www.w3.org/2000/svg">
</g>
</g></svg>
