<?xml version="1.0"?>
<svg xmlns="http://www.w3.org/2000/svg" xmlns:xlink="http://www.w3.org/1999/xlink" xmlns:svgjs="http://svgjs.com/svgjs" version="1.1" width="512" height="512" x="0" y="0" viewBox="0 0 511 511.99971" style="enable-background:new 0 0 512 512" xml:space="preserve" class=""><g><path xmlns="http://www.w3.org/2000/svg" d="m470.707031 282.222656-188.851562 107.5625-222.679688-127.886718-6.457031-153.898438-52.21875 21.089844v211.242187l18.996094 10.96875 19-10.96875v-32.445312l239.445312 138.625-.039062.007812v54.511719l18.996094 10.96875 18.996093-10.96875v-54.511719l153.960938-88.890625v32.371094l18.996093 10.96875 9.324219-28.4375-.3125-79.863281zm0 0" fill="#187a34" data-original="#b2260b" style=""/><path xmlns="http://www.w3.org/2000/svg" d="m507.847656 286.902344-277.023437-159.941406-210.949219 121.792968 277.023438 159.941406zm0 0" fill="#2dc359" data-original="#ff7e27" style="" class=""/><path xmlns="http://www.w3.org/2000/svg" d="m38.496094 307.886719v32.445312l-19 10.96875v-54.414062zm0 0" fill="#28a74d" data-original="#ef5f26" style="" class=""/><path xmlns="http://www.w3.org/2000/svg" d="m225.695312 12.507812s-.003906 0-.003906-.003906l-17.363281-10.363281c-2.699219-2.285156-6.691406-2.957031-10.183594-.945313l-185.707031 107.21875c-7.386719 4.265626-11.9375 12.148438-11.9375 20.675782l19.375 11.65625c0-5.332032 0-5.332032 0 0v108.007812l210.949219-121.792968v-106.425782c0-3.710937-2.1875-6.652344-5.128907-8.027344zm-.890624-.359374c-.03125-.007813-.066407-.023438-.097657-.03125.03125.007812.066407.019531.097657.03125zm-.949219-.269532c-.066407-.011718-.132813-.027344-.199219-.039062.066406.011718.132812.027344.199219.039062zm-.996094-.164062c-.101563-.011719-.203125-.015625-.304687-.023438.101562.007813.203124.011719.304687.023438zm-1.035156-.050782c-.136719.003907-.273438.011719-.414063.023438.140625-.011719.277344-.019531.414063-.023438zm-3.230469.660157c-.363281.152343-.722656.324219-1.074219.527343.351563-.203124.710938-.375 1.074219-.527343zm2.167969-.582031c-.175781.023437-.351563.0625-.527344.097656.175781-.035156.351563-.074219.527344-.097656zm-1.082031.214843c-.222657.0625-.441407.144531-.664063.21875.222656-.074219.441406-.15625.664063-.21875zm0 0" fill="#2dc359" data-original="#ff7e27" style="" class=""/><path xmlns="http://www.w3.org/2000/svg" d="m19.875 248.753906v-108.007812c0-8.527344 4.550781-16.410156 11.9375-20.671875l185.707031-107.222657c5.914063-3.414062 13.304688.855469 13.304688 7.683594v106.425782zm0 0" fill="#28a74d" data-original="#ef5f26" style="" class=""/><path xmlns="http://www.w3.org/2000/svg" d="m47.53125 183.210938 176.042969-101.640626c5.375-3.105468 11.996093-3.105468 17.371093 0l239.246094 138.128907c3.789063 2.1875 5.683594 6.015625 5.683594 9.84375v51.601562c0 3.828125-1.894531 7.65625-5.683594 9.84375l-176.042968 101.640625c-5.375 3.101563-11.996094 3.101563-17.371094 0l-239.246094-138.128906c-3.789062-2.1875-5.683594-6.015625-5.683594-9.847656v-51.597656c0-3.828126 1.894532-7.65625 5.683594-9.84375zm0 0" fill="#b6c5ce" data-original="#b6c5ce" style=""/><path xmlns="http://www.w3.org/2000/svg" d="m480.191406 219.699219-239.246094-138.128907c-5.375-3.105468-11.996093-3.105468-17.371093 0l-176.042969 101.640626c-7.578125 4.375-7.578125 15.316406 0 19.691406l239.246094 138.128906c5.375 3.101562 11.996094 3.101562 17.371094 0l176.042968-101.640625c7.578125-4.375 7.578125-15.316406 0-19.691406zm0 0" fill="#e4f2f1" data-original="#e4f2f1" style=""/><path xmlns="http://www.w3.org/2000/svg" d="m507.847656 286.902344v103.097656l-18.996094 10.96875v-54.308594l-172.957031 99.859375v54.511719l-18.996093 10.96875v-103.304688zm0 0" fill="#28a74d" data-original="#ef5f26" style="" class=""/></g></svg>
