<?xml version="1.0"?>
<svg xmlns="http://www.w3.org/2000/svg" xmlns:xlink="http://www.w3.org/1999/xlink" xmlns:svgjs="http://svgjs.com/svgjs" version="1.1" width="512" height="512" x="0" y="0" viewBox="0 0 512 512" style="enable-background:new 0 0 512 512" xml:space="preserve" class=""><g>
<path xmlns="http://www.w3.org/2000/svg" style="" d="M503.42,264.16c5.699-3.311,8.552-7.647,8.565-11.989l0.015-5.05c0,0.127-0.011,0.254-0.017,0.381  c0.186-4.522-2.704-9.085-8.684-12.538L241.153,83.614c-11.55-6.669-30.214-6.665-41.684,0L0.052,199.503L0,257.891l304.019,175.495  v-5.05l0,0v5.05l199.358-115.885c5.701-3.313,8.555-7.648,8.567-11.988l0.015-5.05c0,0.127-0.011,0.255-0.017,0.382  c0.187-4.523-2.705-9.085-8.686-12.539l-9.902-5.717l0.017-12.588L503.42,264.16z" fill="#1d6c34" data-original="#820018" class=""/>
<g xmlns="http://www.w3.org/2000/svg" style="enable-background:new    ;">
	<polygon style="" points="304.019,428.336 304.019,433.386 0,257.891 0.015,252.841  " fill="#d07400" data-original="#d07400" class=""/>
	<path style="" d="M503.256,288.306c11.55,6.669,11.611,17.477,0.136,24.146L304.019,428.336L0.015,252.841   l199.411-115.885c11.475-6.669,30.134-6.669,41.684,0L503.256,288.306z" fill="#197a35" data-original="#a50020" class=""/>
</g>
<g xmlns="http://www.w3.org/2000/svg" style="enable-background:new    ;">
	<path style="" d="M484.825,266.322L300.417,373.474v48.289l184.346-107.152c5.699-3.311,8.552-7.647,8.565-11.989   l0.063-48.289C493.378,258.675,490.524,263.009,484.825,266.322z" fill="#e0e0e2" data-original="#e0e0e2" class=""/>
</g>
<path xmlns="http://www.w3.org/2000/svg" style="" d="M503.299,234.964c11.55,6.669,11.606,17.479,0.136,24.146L304.019,374.997L0.052,199.503  L199.469,83.614c11.47-6.665,30.134-6.669,41.684,0L503.299,234.964z" fill="#35c25e" data-original="#c60024" class=""/>
<polygon xmlns="http://www.w3.org/2000/svg" style="" points="0.052,199.503 0,257.891 304.019,433.386 304.019,374.997 " fill="#197a35" data-original="#a50020" class=""/>
<path xmlns="http://www.w3.org/2000/svg" style="" d="M503.42,264.16c5.699-3.311,8.552-7.647,8.565-11.989l0.015-5.05  c-0.013,4.342-2.866,8.677-8.565,11.989L304.019,374.997v58.389l199.358-115.885c5.701-3.313,8.555-7.648,8.567-11.988l0.015-5.05  c-0.013,4.34-2.866,8.676-8.567,11.988L307.928,426.064v-48.289L503.42,264.16z" fill="#1d6c34" data-original="#820018" class=""/>
<polyline xmlns="http://www.w3.org/2000/svg" style="" points="347.923,370.534 326.344,382.992 326.476,429.602 337.239,414.008 348.056,417.142   347.923,370.534 " fill="#8d8d8d" data-original="#005ecf" class=""/>
<g xmlns="http://www.w3.org/2000/svg">
	<path style="" d="M196.689,251.274l-10.827-11.579l19.812,6.357L196.689,251.274 M243.487,245.924l-66.924-18.782   l-12.402,7.207l32.577,38.742l13.864-8.056l-6.822-7.327l13.166-7.651l12.744,3.885L243.487,245.924" fill="#ffffff" data-original="#ffffff" class=""/>
	<polyline style="" points="268.822,215.687 256.901,208.804 235.102,221.473 247.022,228.355 268.822,215.687  " fill="#ffffff" data-original="#ffffff" class=""/>
	<polyline style="" points="342.474,188.399 330.553,181.518 308.402,194.39 302.447,165.767 292.279,159.897    254.515,181.842 266.436,188.724 288.521,175.89 293.094,205.325 303.255,211.191 342.474,188.399  " fill="#ffffff" data-original="#ffffff" class=""/>
</g>
<g xmlns="http://www.w3.org/2000/svg">
</g>
<g xmlns="http://www.w3.org/2000/svg">
</g>
<g xmlns="http://www.w3.org/2000/svg">
</g>
<g xmlns="http://www.w3.org/2000/svg">
</g>
<g xmlns="http://www.w3.org/2000/svg">
</g>
<g xmlns="http://www.w3.org/2000/svg">
</g>
<g xmlns="http://www.w3.org/2000/svg">
</g>
<g xmlns="http://www.w3.org/2000/svg">
</g>
<g xmlns="http://www.w3.org/2000/svg">
</g>
<g xmlns="http://www.w3.org/2000/svg">
</g>
<g xmlns="http://www.w3.org/2000/svg">
</g>
<g xmlns="http://www.w3.org/2000/svg">
</g>
<g xmlns="http://www.w3.org/2000/svg">
</g>
<g xmlns="http://www.w3.org/2000/svg">
</g>
<g xmlns="http://www.w3.org/2000/svg">
</g>
</g></svg>
