<?xml version="1.0"?>
<svg xmlns="http://www.w3.org/2000/svg" xmlns:xlink="http://www.w3.org/1999/xlink" xmlns:svgjs="http://svgjs.com/svgjs" version="1.1" width="512" height="512" x="0" y="0" viewBox="0 0 512 512.00026" style="enable-background:new 0 0 512 512" xml:space="preserve" class=""><g><path xmlns="http://www.w3.org/2000/svg" d="m145.632812 348.277344-49.824218-35.050782c-7.328125-18.316406-19.539063-34.597656-33.371094-42.585937-22.421875-12.941406-40.59375.796875-40.59375 30.691406s18.171875 64.621094 40.59375 77.5625c10.625 6.136719 20.296875 6.269531 27.53125 1.535157zm0 0" fill="#23292e" data-original="#23292e" style=""/><path xmlns="http://www.w3.org/2000/svg" d="m309.722656 509.796875c.671875-.339844 57.625-33.285156 57.625-33.285156l-49.824218-35.054688c-7.328126-18.316406-19.539063-34.597656-33.371094-42.582031-22.417969-12.945312-40.59375.796875-40.59375 30.6875 0 29.894531 18.171875 64.621094 40.59375 77.566406 9.695312 5.59375 18.589844 6.195313 25.570312 2.667969zm0 0" fill="#23292e" data-original="#23292e" style=""/><path xmlns="http://www.w3.org/2000/svg" d="m509.316406 380.964844-10.679687-6.273438v-55.632812c0-12.523438-6.679688-24.09375-17.527344-30.355469l-80.128906-46.261719-24.140625-90.074218-2.996094-11.175782c-2.277344-8.488281-7.050781-16.09375-13.703125-21.835937l-60.152344-51.914063-111.589843-64.179687c-8.058594-4.636719-17.257813-4.074219-24.433594.074219l-139.933594 82.113281h-.003906c-6.683594 3.636719-11.347656 10.289062-12.488282 17.816406l-11.539062 76.285156v63.320313c0 24.101562 12.871094 46.371094 33.753906 58.402344l300.429688 173.097656v5.191406l20.335937 11.714844 154.796875-90.933594zm0 0" fill="#238342" data-original="#238342" style=""/><path xmlns="http://www.w3.org/2000/svg" d="m47.90625 85.726562 110.667969 63.644532 61.019531 52.433594c6.6875 5.75 11.488281 13.382812 13.773438 21.902343l27.128906 101.210938 79.769531 50.488281c8.894531 5.628906 14.289063 15.421875 14.289063 25.945312v84.753907l-320.800782-184.832031c-20.882812-12.03125-33.753906-34.300782-33.753906-58.402344v-63.320313l11.539062-76.285156c2.574219-17.015625 21.453126-26.121094 36.367188-17.539063zm0 0" fill="#045d32" data-original="#045d32" style="" class=""/><path xmlns="http://www.w3.org/2000/svg" d="m373.84375 141.191406c-2.277344-8.488281-7.050781-16.097656-13.703125-21.839844l-60.152344-51.914062-111.589843-64.175781c-8.058594-4.636719-17.257813-4.074219-24.433594.074219l-139.933594 82.113281c-6.386719 3.472656-11.269531 9.753906-12.492188 17.816406l-.207031 1.375 224.082031 129.375 141.421876-81.652344zm0 0" fill="#ededed" data-original="#ededed" style="" class=""/><path xmlns="http://www.w3.org/2000/svg" d="m11.539062 103.265625-.207031 1.375 224.082031 129.375s.199219-.210937.550782-.617187l-2.601563-9.691407c-2.28125-8.519531-7.082031-16.152343-13.769531-21.902343l-61.019531-52.433594-110.667969-63.644532c-14.914062-8.582031-33.792969.523438-36.367188 17.539063zm0 0" fill="#cecece" data-original="#cecece" style="" class=""/><path xmlns="http://www.w3.org/2000/svg" d="m324.75 476.4375c0 29.894531-18.175781 43.636719-40.597656 30.691406-22.417969-12.945312-40.59375-47.671875-40.59375-77.566406s18.175781-43.632812 40.59375-30.6875c22.421875 12.941406 40.597656 47.671875 40.597656 77.5625zm0 0" fill="#2e373d" data-original="#2e373d" style="" class=""/><path xmlns="http://www.w3.org/2000/svg" d="m304.113281 464.523438c0 14.699218-8.9375 21.453124-19.960937 15.089843-11.023438-6.363281-19.960938-23.4375-19.960938-38.136719 0-14.699218 8.9375-21.453124 19.960938-15.089843 11.023437 6.367187 19.960937 23.441406 19.960937 38.136719zm0 0" fill="#cecece" data-original="#cecece" style="" class=""/><path xmlns="http://www.w3.org/2000/svg" d="m294.980469 459.25c0 7.972656-4.847657 11.636719-10.828125 8.183594-5.976563-3.449219-10.824219-12.710938-10.824219-20.683594s4.847656-11.632812 10.824219-8.183594c5.980468 3.453125 10.828125 12.714844 10.828125 20.683594zm0 0" fill="#627681" data-original="#627681" style=""/><path xmlns="http://www.w3.org/2000/svg" d="m103.03125 348.207031c0 29.894531-18.175781 43.632813-40.59375 30.691407-22.421875-12.945313-40.597656-47.671876-40.597656-77.566407s18.175781-43.632812 40.597656-30.6875c22.417969 12.941407 40.59375 47.667969 40.59375 77.5625zm0 0" fill="#2e373d" data-original="#2e373d" style="" class=""/><path xmlns="http://www.w3.org/2000/svg" d="m82.394531 336.292969c0 14.699219-8.933593 21.453125-19.957031 15.089843-11.023438-6.363281-19.960938-23.4375-19.960938-38.136718 0-14.699219 8.9375-21.453125 19.960938-15.089844s19.957031 23.4375 19.957031 38.136719zm0 0" fill="#cecece" data-original="#cecece" style="" class=""/><path xmlns="http://www.w3.org/2000/svg" d="m73.261719 331.019531c0 7.972657-4.847657 11.636719-10.824219 8.183594-5.980469-3.449219-10.828125-12.710937-10.828125-20.683594 0-7.972656 4.847656-11.636719 10.828125-8.183593 5.976562 3.453124 10.824219 12.710937 10.824219 20.683593zm0 0" fill="#627681" data-original="#627681" style=""/><path xmlns="http://www.w3.org/2000/svg" d="m509.316406 380.964844-10.679687-6.273438v6.761719l-144.085938 84.644531-17.152343-9.894531-3.214844 1.800781v21.558594l20.335937 11.714844 154.796875-90.933594zm0 0" fill="#2e373d" data-original="#2e373d" style="" class=""/><path xmlns="http://www.w3.org/2000/svg" d="m498.636719 374.691406v6.761719l-144.085938 84.644531-17.152343-9.894531-3.214844 1.800781v21.558594l20.335937 11.714844v-21.535156l154.796875-88.777344zm0 0" fill="#23292e" data-original="#23292e" style=""/><path xmlns="http://www.w3.org/2000/svg" d="m495.042969 338.367188c0 8.585937-5.222657 18.5625-11.664063 22.28125s-11.664062-.226563-11.664062-8.816407c0-8.589843 5.222656-18.566406 11.664062-22.285156 6.441406-3.714844 11.664063.230469 11.664063 8.820313zm0 0" fill="#ffffff" data-original="#ffffff" style=""/><path xmlns="http://www.w3.org/2000/svg" d="m456.027344 303.332031-88.503906-50.792969-79.328126 46.476563 88.503907 50.796875c10.910156 6.257812 17.636719 17.875 17.636719 30.453125v57.394531l79.328124-46.570312v-57.300782c0-12.578124-6.726562-24.195312-17.636718-30.457031zm0 0" fill="#35c25e" data-original="#2dad57" style="" class=""/><g xmlns="http://www.w3.org/2000/svg" fill="#045d32"><path d="m419.953125 417.007812 13.925781-8.039062v-50.988281l-13.925781 7.929687zm0 0" fill="#045d32" data-original="#045d32" style="" class=""/><path d="m451.554688 347.917969-13.257813 7.546875v50.953125l13.257813-7.652344zm0 0" fill="#045d32" data-original="#045d32" style="" class=""/><path d="m415.535156 368.425781-10.609375 6.039063c-3.496093 1.988281-5.65625 5.703125-5.65625 9.726562v37.726563c0 3.125 3.382813 5.078125 6.089844 3.515625l10.175781-5.875zm0 0" fill="#045d32" data-original="#045d32" style="" class=""/><path d="m462.417969 341.730469-6.445313 3.671875v50.808594l6.914063-3.992188c3.464843-2 5.597656-5.695312 5.597656-9.691406v-37.265625c0-3.117188-3.359375-5.070313-6.066406-3.53125zm0 0" fill="#045d32" data-original="#045d32" style="" class=""/></g><path xmlns="http://www.w3.org/2000/svg" d="m384.261719 402.300781c0 8.585938-5.21875 18.5625-11.660157 22.28125-6.441406 3.71875-11.664062-.226562-11.664062-8.816406 0-8.585937 5.222656-18.5625 11.664062-22.285156 6.441407-3.71875 11.660157.230469 11.660157 8.820312zm0 0" fill="#ffffff" data-original="#ffffff" style=""/><path xmlns="http://www.w3.org/2000/svg" d="m264.625 312.867188 124.113281-71.980469-15.652343-63.714844c-.976563-3.96875-5.488282-5.890625-9.027344-3.84375l-111.457032 64.496094c-4.042968 2.339843-6.015624 7.097656-4.816406 11.613281zm0 0" fill="#304e75" data-original="#304e75" style="" class=""/><path xmlns="http://www.w3.org/2000/svg" d="m246.378906 321.992188-13.433594-54.5625c-2.71875-11.050782-9.886718-20.492188-19.804687-26.082032l-58.636719-33.058594c-6.089844-3.433593-13.621094.96875-13.621094 7.960938v44.835938zm0 0" fill="#243b58" data-original="#243b58" style="" class=""/><path xmlns="http://www.w3.org/2000/svg" d="m359.496094 175.96875-50.367188 29.144531 70.804688 40.878907.746094-.433594-13.183594-53.550782c-1.460938-5.9375-4.238282-11.378906-8-16.039062zm0 0" fill="#59718b" data-original="#59718b" style=""/><path xmlns="http://www.w3.org/2000/svg" d="m111.335938 212.132812v-15.070312c0-8.535156-4.554688-16.425781-11.949219-20.691406l-59.207031-34.183594c-7.691407-4.441406-17.308594 1.109375-17.308594 9.992188v15.4375c0 8.578124 4.597656 16.496093 12.042968 20.75l59.160157 33.785156c7.691406 4.394531 17.261719-1.160156 17.261719-10.019532zm0 0" fill="#243b58" data-original="#243b58" style="" class=""/><path xmlns="http://www.w3.org/2000/svg" d="m116.804688 147.582031v-1.773437c0-5.410156-2.886719-10.40625-7.570313-13.109375l-68.917969-40.078125c-4.875-2.816406-10.96875.703125-10.96875 6.332031v2.003906c0 5.4375 2.914063 10.453125 7.632813 13.148438l68.882812 39.828125c4.875 2.78125 10.941407-.738282 10.941407-6.351563zm0 0" fill="#243b58" data-original="#243b58" style="" class=""/><path xmlns="http://www.w3.org/2000/svg" d="m291.070312 306.96875-2.875-7.953125 88.503907 50.792969c10.910156 6.261718 17.636719 17.878906 17.636719 30.457031v57.390625l-5.597657-3.230469v-49.671875c0-13.238281-7.0625-25.472656-18.527343-32.089844zm0 0" fill="#045d32" data-original="#045d32" style="" class=""/></g></svg>
