<?xml version="1.0"?>
<svg xmlns="http://www.w3.org/2000/svg" xmlns:xlink="http://www.w3.org/1999/xlink" xmlns:svgjs="http://svgjs.com/svgjs" version="1.1" width="512" height="512" x="0" y="0" viewBox="0 0 511.999 511.999" style="enable-background:new 0 0 512 512" xml:space="preserve" class=""><g>
<path xmlns="http://www.w3.org/2000/svg" style="" d="M287.281,34.356c1.864,8.071-2.968,38.347-3.415,95.17c-0.254,32.312-30.176,52.797-30.176,52.797  s-24.527-28.968-27.83-73.806c-1.975-26.814-1.276-50.393-0.869-77.287c0.312-20.654,15.895-31.878,36.65-28.695  C273.296,4.322,284.623,22.85,287.281,34.356z" fill="#791900" data-original="#791900"/>
<g xmlns="http://www.w3.org/2000/svg">
	<path style="" d="M222.626,450.478c0,0-27.993,28.08-22.274,31.679c7.964,5.01,40.337-15.667,40.337-17.328   c0-1.659-2.293-17.777-2.293-17.777L222.626,450.478z" fill="#884d01" data-original="#884d01"/>
	<path style="" d="M265.613,476.23c0,0-27.079,30.099-19.718,35.03c7.818,5.237,37.78-19.02,37.78-20.679   s-2.293-17.777-2.293-17.777L265.613,476.23z" fill="#884d01" data-original="#884d01"/>
</g>
<path xmlns="http://www.w3.org/2000/svg" style="" d="M205.788,233.247c0,0-2.876,22.549-1.766,23.658c1.11,1.11,6.21,4.216,7.431,4.216  s10.157-3.422,11.198-5.762c0.897-2.014,0.24-7.098-2.307-10.157c-2.927-3.512-2.549-9.683-2.549-9.683L205.788,233.247z" fill="#ffb657" data-original="#ffb657"/>
<path xmlns="http://www.w3.org/2000/svg" style="" d="M304.14,292.439c0.107-27.918-16.054-47.84-16.054-47.84l-73.814-6.533l7.186,210.775  c0,0-0.437,5.45,8.029,6.306c8.037,0.813,9.961-4.566,9.961-4.566s11.783-54.474,2.978-97.707c0,0,5.809-20.384,10.933-41.99  l5.693,1.327l5.526,162.064c0,0-0.437,6.976,8.029,7.832c8.037,0.813,9.99-5.28,9.99-5.28s11.753-55.286,2.948-98.519  C285.545,378.307,304.06,313.331,304.14,292.439z" fill="#3e3d43" data-original="#3e3d43" class=""/>
<path xmlns="http://www.w3.org/2000/svg" style="" d="M223.972,90.012c0,0-18.982-2.163-16.168,56.224c2.831,58.722-3.314,87.942-3.314,87.942  s1.273,4.343,8.73,4.343s8.698-2.792,8.698-2.792s2.722-68.159,3.052-71.463C226.261,151.353,238.322,93.235,223.972,90.012z" fill="#35c25e" data-original="#fece00" class=""/>
<path xmlns="http://www.w3.org/2000/svg" style="" d="M211.992,248.757c0,0,5.658-28.305,6.204-61.265c0.197-11.948-11.361-25.839-11.361-40.288  c0-15.048,5.573-36.979,17.138-57.193c0,0,45.019-12.331,79.801,41.993c0,0-18.204,23.735-20.266,64.328  c-1.04,20.473,13.17,59.869,13.17,59.869C262.195,283.498,217.587,274.349,211.992,248.757z" fill="#e0e0e2" data-original="#e0e0e2" class=""/>
<path xmlns="http://www.w3.org/2000/svg" style="" d="M211.992,248.757c0,0,5.658-28.305,6.204-61.265c0.197-11.948-11.361-25.839-11.361-40.288  c0-15.048,5.573-36.979,17.138-57.193c0,0,45.019-12.331,79.801,41.993c0,0-18.204,23.735-20.266,64.328  c-1.04,20.473,13.17,59.869,13.17,59.869C262.195,283.498,217.587,274.349,211.992,248.757z" fill="#35c25e" data-original="#fece00" class=""/>
<path xmlns="http://www.w3.org/2000/svg" style="" d="M213.22,238.521c0.183,0,0.351-0.007,0.522-0.013c0.417-2.716,0.875-5.899,1.334-9.466l2.784-31.265  c0.16-3.359,0.278-6.794,0.335-10.285c0.156-9.371-6.921-19.938-9.981-31.033c0.083,2.548,0.149,5.04,0.201,7.467  c2.81,6.576,5.53,13.077,6.965,16.874c3.746,9.904-5.625,57.247-5.643,57.339C210.716,238.374,211.864,238.521,213.22,238.521z" fill="#22a548" data-original="#eebf00" class=""/>
<path xmlns="http://www.w3.org/2000/svg" style="" d="M268.201,270.534c-4.346-28.216-9.594-94.98-9.594-109.274c0-18.067,9.813-35.141,13.811-47.425  c3.999-12.285-11.883-27.764-34.768-11.118c-22.887,16.647-13.96,41.693-9.791,67.404c3.297,20.327-0.504,74.507-2.24,96.31  C236.369,272.799,251.998,274.75,268.201,270.534z" fill="#e0e0e2" data-original="#e0e0e2" class=""/>
<path xmlns="http://www.w3.org/2000/svg" style="" d="M241.771,83.265c0,0-2.309,17.449-3.413,27.036c-0.816,7.092,11.717,11.663,21.294,8.652  c9.578-3.012,13.448-10.096,13.448-10.096c-4.518-15.215-4.225-37.271-4.225-37.271L241.771,83.265z" fill="#ffb657" data-original="#ffb657"/>
<path xmlns="http://www.w3.org/2000/svg" style="" d="M220.268,51.892c0,0,2.294,33.212,10.722,39.133c8.427,5.92,37.73-3.508,49.61-23.521  c11.881-20.013,7.356-61.577-19.007-65.654C230.799-2.912,218.461,22.171,220.268,51.892z" fill="#fec377" data-original="#fec377" class=""/>
<path xmlns="http://www.w3.org/2000/svg" style="" d="M238.322,4.038c-32.874,14.911-15.98,63.371-15.98,63.371s-4.391-19.245,11.248-30.271  c9.12-6.429,13.364-6.226,25.671-13.733c16.37,25.546,10.289,57.769,10.289,57.769s11.98-10.182,15.504-20.63  c3.526-10.448,3.373-27.496-0.067-37.972C279.105,4.656,261.313-6.39,238.322,4.038z" fill="#791900" data-original="#791900"/>
<path xmlns="http://www.w3.org/2000/svg" style="" d="M291.131,283.855c0,0-2.948,12.848-2.598,15.226c0.351,2.378,2.918,4.742,2.918,4.742  s-0.232,5.762,2.001,7.421c2.233,1.659,15.174-4.627,17.161-6.665c2.791-2.864-0.632-23.502-0.632-23.502  S294.364,273.438,291.131,283.855z" fill="#ffb657" data-original="#ffb657"/>
<path xmlns="http://www.w3.org/2000/svg" style="" d="M297.971,126.305c-5.65-1.491-13.772,2.141-14.422,18.392c-0.65,16.25,7.904,27.747,6.463,80.646  c-1.286,47.25-0.333,57.176-0.333,57.176s7.344,12.888,22.706,1.1c0,0,0.104-75.134-0.056-84.718  C311.325,139.206,304.141,127.934,297.971,126.305z" fill="#35c25e" data-original="#fece00" class=""/>
<g xmlns="http://www.w3.org/2000/svg">
</g>
<g xmlns="http://www.w3.org/2000/svg">
</g>
<g xmlns="http://www.w3.org/2000/svg">
</g>
<g xmlns="http://www.w3.org/2000/svg">
</g>
<g xmlns="http://www.w3.org/2000/svg">
</g>
<g xmlns="http://www.w3.org/2000/svg">
</g>
<g xmlns="http://www.w3.org/2000/svg">
</g>
<g xmlns="http://www.w3.org/2000/svg">
</g>
<g xmlns="http://www.w3.org/2000/svg">
</g>
<g xmlns="http://www.w3.org/2000/svg">
</g>
<g xmlns="http://www.w3.org/2000/svg">
</g>
<g xmlns="http://www.w3.org/2000/svg">
</g>
<g xmlns="http://www.w3.org/2000/svg">
</g>
<g xmlns="http://www.w3.org/2000/svg">
</g>
<g xmlns="http://www.w3.org/2000/svg">
</g>
</g></svg>
